<?xml version="1.0" encoding="UTF-8" standalone="no"?>
<!-- Created with Inkscape (http://www.inkscape.org/) -->

<svg
   width="100mm"
   height="100mm"
   viewBox="0 0 100 100"
   version="1.1"
   id="svg3507"
   inkscape:version="1.2.1 (9c6d41e, 2022-07-14)"
   sodipodi:docname="icons.svg"
   xmlns:inkscape="http://www.inkscape.org/namespaces/inkscape"
   xmlns:sodipodi="http://sodipodi.sourceforge.net/DTD/sodipodi-0.dtd"
   xmlns="http://www.w3.org/2000/svg"
   xmlns:svg="http://www.w3.org/2000/svg">
  <sodipodi:namedview
     id="namedview3509"
     pagecolor="#ffffff"
     bordercolor="#666666"
     borderopacity="1.0"
     inkscape:pageshadow="2"
     inkscape:pageopacity="0.0"
     inkscape:pagecheckerboard="0"
     inkscape:document-units="mm"
     showgrid="false"
     inkscape:zoom="1.52"
     inkscape:cx="65.460526"
     inkscape:cy="175"
     inkscape:window-width="1920"
     inkscape:window-height="938"
     inkscape:window-x="1440"
     inkscape:window-y="25"
     inkscape:window-maximized="0"
     inkscape:current-layer="layer1"
     inkscape:showpageshadow="2"
     inkscape:deskcolor="#d1d1d1" />
  <defs
     id="defs3504">
    <inkscape:path-effect
       effect="fillet_chamfer"
       id="path-effect4375"
       is_visible="true"
       lpeversion="1"
       satellites_param="F,0,0,1,0,20,0,1 @ F,0,0,1,0,20,0,1 @ F,0,0,1,0,20,0,1 @ F,0,0,1,0,20,0,1"
       unit="mm"
       method="auto"
       mode="F"
       radius="20"
       chamfer_steps="1"
       flexible="false"
       use_knot_distance="true"
       apply_no_radius="true"
       apply_with_radius="true"
       only_selected="false"
       hide_knots="false"
       nodesatellites_param="F,0,0,1,0,20,0,1 @ F,0,0,1,0,20,0,1 @ F,0,0,1,0,20,0,1 @ F,0,0,1,0,20,0,1" />
    <rect
       x="-14.344404"
       y="-26.939489"
       width="178.43039"
       height="153.59007"
       id="rect13379" />
  </defs>
  <g
     inkscape:label="background"
     inkscape:groupmode="layer"
     id="layer1"
     transform="translate(-56.550228,-64.119934)"
     sodipodi:insensitive="true">
    <path
       style="fill:#000000;fill-rule:evenodd;stroke-width:0.982577"
       id="rect3759"
       width="100"
       height="100"
       x="56.550228"
       y="64.119934"
       sodipodi:type="rect"
       inkscape:path-effect="#path-effect4375"
       d="m 76.550228,64.119934 h 60.000002 a 20,20 45 0 1 20,20 v 59.999996 a 20,20 135 0 1 -20,20 l -60.000002,0 a 20,20 45 0 1 -20,-20 V 84.119934 a 20,20 135 0 1 20,-20 z"
       sodipodi:insensitive="true" />
  </g>
  <g
     inkscape:groupmode="layer"
     id="layer2"
     inkscape:label="deepfence"
     transform="translate(-56.550228,-64.119934)"
     style="display:inline"
     sodipodi:insensitive="true">
    <g
       id="g4415"
       transform="matrix(0.89296779,0,0,0.89296779,51.655338,48.129726)"
       style="fill:#fffffd;fill-opacity:1"
       sodipodi:insensitive="true">
      <g
         id="g120"
         transform="matrix(0.69816477,0,0,0.6584446,19.165874,35.99454)"
         style="fill:#fffffd;fill-opacity:1">
        <linearGradient
           id="SVGID_1_"
           gradientUnits="userSpaceOnUse"
           x1="39.3564"
           y1="0.72289997"
           x2="39.3564"
           y2="70.880096">
          <stop
             offset="0"
             style="stop-color:#16C7F3"
             id="stop97" />
          <stop
             offset="1"
             style="stop-color:#1F72B3"
             id="stop99" />
        </linearGradient>
        <polygon
           class="st0"
           points="13.4,17.3 18,22.5 53,66.3 60.6,75.8 68.2,66.3 71.1,62.7 78.7,53.1 71.1,43.6 54.2,22.5 46.9,13.3 43.6,9.2 36.3,0 21,0 15.3,0 0,0 10.1,13.3 25.4,13.3 31.1,13.3 34.4,17.3 39,22.5 63.5,53.1 60.6,56.7 33.2,22.5 28.6,17.3 "
           id="polygon102"
           style="fill:#fffffd;fill-opacity:1" />
        <g
           id="g118"
           style="fill:#fffffd;fill-opacity:1">
          <linearGradient
             id="SVGID_00000040559873967293563990000010313427330174422680_"
             gradientUnits="userSpaceOnUse"
             x1="91.808502"
             y1="0.72289997"
             x2="91.808502"
             y2="70.880096">
            <stop
               offset="0"
               style="stop-color:#16C7F3"
               id="stop104" />
            <stop
               offset="1"
               style="stop-color:#1F72B3"
               id="stop106" />
          </linearGradient>
          <polygon
             style="fill:#fffffd;fill-opacity:1"
             points="76.4,17.5 91.9,36.7 103.2,22.5 107.2,17.5 "
             id="polygon109" />
          <linearGradient
             id="SVGID_00000068655785444952865200000007087109414417739179_"
             gradientUnits="userSpaceOnUse"
             x1="81.582703"
             y1="0.72289997"
             x2="81.582703"
             y2="70.880096">
            <stop
               offset="0"
               style="stop-color:#16C7F3"
               id="stop111" />
            <stop
               offset="1"
               style="stop-color:#1F72B3"
               id="stop113" />
          </linearGradient>
          <polygon
             style="fill:#fffffd;fill-opacity:1"
             points="113.8,9.2 121.2,0 105.9,0 57.2,0 42,0 49.4,9.2 52.6,13.3 60,22.5 74,40 81.6,49.5 89.2,40 89.3,39.9 71.2,17.5 67.9,13.4 73.1,13.4 110.5,13.4 110.6,13.3 "
             id="polygon116" />
        </g>
      </g>
    </g>
  </g>
  <g
     inkscape:groupmode="layer"
     id="layer6"
     inkscape:label="guides"
     style="display:none">
    <path
       style="fill:none;stroke:#000000;stroke-width:0.264583px;stroke-linecap:butt;stroke-linejoin:miter;stroke-opacity:1"
       d="M 73.471718,8.032908 V 97.178593"
       id="path5719" />
    <path
       style="fill:none;stroke:#000000;stroke-width:0.264583px;stroke-linecap:butt;stroke-linejoin:miter;stroke-opacity:1"
       d="M 44.278956,72.883945 H 101.88078"
       id="path5721" />
  </g>
  <g
     inkscape:groupmode="layer"
     id="layer3"
     inkscape:label="threatmapper"
     style="display:none">
    <path
       style="fill:#ffffff;stroke-width:0.228085"
       d="m 73.154547,94.620609 c -0.1286,-0.33825 -1.1685,-3.61125 -2.31089,-7.27334 -1.14239,-3.66209 -2.1434,-6.723758 -2.22448,-6.803709 -0.0811,-0.07995 -1.37261,0.51022 -2.870089,1.31149 -1.497478,0.801269 -2.763066,1.456859 -2.812418,1.456859 -0.04935,0 0.581968,-1.286876 1.402934,-2.859722 1.465775,-2.808205 1.483569,-2.863479 0.987736,-3.068377 -0.277712,-0.114761 -3.635399,-1.199309 -7.461528,-2.410108 -3.826129,-1.210799 -6.991864,-2.23453 -7.034967,-2.274961 -0.0431,-0.04043 0.726685,-0.324412 1.710639,-0.631077 0.983954,-0.306665 4.371354,-1.360517 7.527555,-2.341892 l 5.738548,-1.78432 -1.477557,-2.948622 -1.477556,-2.948621 2.887466,1.52766 c 1.588107,0.840212 2.929427,1.485696 2.980717,1.434409 0.0513,-0.05129 1.14223,-3.455347 2.42432,-7.564577 1.58422,-5.077594 2.38437,-7.336861 2.49741,-7.051631 0.0915,0.230833 1.15856,3.550166 2.37126,7.376295 1.21271,3.826129 2.24872,7.003804 2.30225,7.0615 0.0535,0.0577 1.37656,-0.532306 2.94008,-1.311116 l 2.84277,-1.416019 -1.37008,2.733142 c -0.75354,1.503228 -1.37008,2.833889 -1.37008,2.957026 0,0.210224 7.0046,2.549383 12.30112,4.10791 1.30868,0.385085 2.40391,0.724643 2.43384,0.754574 0.0299,0.02993 -3.27319,1.12444 -7.34027,2.432239 -4.06708,1.307802 -7.39469,2.478093 -7.39469,2.60065 0,0.122557 0.61583,1.379318 1.36851,2.792803 0.75268,1.413485 1.36851,2.617795 1.36851,2.676235 0,0.0584 -1.28988,-0.55976 -2.86641,-1.373789 -1.57653,-0.814029 -2.89716,-1.444194 -2.93473,-1.400368 -0.0376,0.04383 -1.11788,3.364117 -2.40068,7.378417 -1.2828,4.0143 -2.37129,7.33862 -2.41889,7.38738 -0.0476,0.0488 -0.19175,-0.18809 -0.32035,-0.52634 z m 1.89406,-9.54104 c 0.81143,-2.5403 1.54222,-4.845155 1.62399,-5.1219 0.12782,-0.432634 -0.0199,-0.588599 -1.05385,-1.112536 l -1.20252,-0.609361 1.01926,-0.388229 1.01927,-0.388228 1.66485,0.900309 c 0.91567,0.495171 1.7177,0.847458 1.7823,0.782862 0.0646,-0.0646 -0.2551,-0.85722 -0.71043,-1.761384 -0.80348,-1.595506 -0.81953,-1.676494 -0.54465,-2.749012 0.15577,-0.607793 0.36972,-1.051617 0.47545,-0.98628 0.10572,0.06534 0.44265,0.613005 0.74873,1.217031 l 0.55652,1.09823 4.828,-1.561384 c 2.65541,-0.858761 4.88103,-1.614408 4.94584,-1.679216 0.0648,-0.06481 -0.0251,-0.165414 -0.19992,-0.223571 -1.58501,-0.527454 -9.57476,-3.098191 -9.62906,-3.098191 -0.0387,0 -0.36406,0.614503 -0.72303,1.365564 l -0.65268,1.365562 -0.36137,-1.080455 -0.36137,-1.080458 0.9683,-1.824681 c 0.53257,-1.003575 0.97002,-1.902691 0.97211,-1.998035 0.002,-0.09534 -0.89427,0.268646 -1.99193,0.808867 l -1.99575,0.982221 -1.08046,-0.36919 -1.08045,-0.369189 1.37258,-0.656036 c 0.75492,-0.360819 1.33185,-0.763951 1.28207,-0.895848 -0.0498,-0.131897 -0.7894,-2.420001 -1.64359,-5.084675 -0.85418,-2.664674 -1.59054,-4.807376 -1.63635,-4.76156 -0.0458,0.04582 -0.78632,2.308025 -1.64555,5.027133 l -1.56225,4.943831 0.48806,0.313135 c 0.26844,0.172224 0.87146,0.493391 1.34005,0.713703 l 0.85199,0.400568 -1.08007,0.375627 -1.08007,0.375628 -1.88171,-0.972798 c -1.03493,-0.535039 -1.8817,-0.874045 -1.8817,-0.753347 0,0.120698 0.40559,1.026135 0.90132,2.012081 0.49572,0.985947 0.84549,1.848455 0.77725,1.916689 -0.0682,0.06823 -0.25481,0.504397 -0.41462,0.969253 l -0.29056,0.845195 -0.63699,-1.170351 c -0.35034,-0.643691 -0.748967,-1.170882 -0.885838,-1.171532 -0.584655,-0.0028 -9.928763,3.069958 -9.772517,3.21362 0.207909,0.191165 9.891302,3.228034 9.978054,3.129278 0.03352,-0.03815 0.343741,-0.632163 0.689391,-1.320018 l 0.62845,-1.250648 0.35685,1.118106 0.35685,1.118105 -0.96799,1.78616 c -0.53239,0.982386 -0.86718,1.786158 -0.74398,1.786158 0.12321,0 0.95879,-0.398697 1.85684,-0.885994 l 1.63283,-0.885993 0.88799,0.372801 c 0.4884,0.205042 0.88904,0.430883 0.89031,0.501867 0.001,0.07099 -0.43389,0.369295 -0.96704,0.662909 -0.53315,0.293614 -0.99431,0.551291 -1.0248,0.572615 -0.0305,0.02133 0.14375,0.646758 0.38721,1.389858 0.24346,0.743099 0.96762,3.018964 1.60926,5.057474 0.64163,2.03851 1.20468,3.70638 1.25121,3.70638 0.0465,0 0.74849,-2.07842 1.55991,-4.61872 z m -2.49533,-8.194411 c -1.19577,-0.257346 -2.71518,-1.552571 -3.06511,-2.612877 -0.39563,-1.19878 -0.16331,-2.878616 0.54644,-3.951118 2.2409,-3.386239 7.67462,-1.696201 7.67462,2.387021 0,2.801242 -2.42394,4.764939 -5.15595,4.176974 z m 2.42463,-2.069426 c 2.58426,-1.750964 0.21185,-5.723275 -2.61656,-4.381108 -1.37096,0.650563 -1.86279,2.152349 -1.15385,3.523271 0.73779,1.426734 2.3795,1.800251 3.77041,0.857837 z m 0.92399,16.964497 c 0.01,-0.0788 0.14354,-0.4922 0.29779,-0.91874 0.24513,-0.67789 0.43333,-0.81465 1.49487,-1.08632 1.70377,-0.43603 3.68678,-1.26554 5.17036,-2.16281 1.7392,-1.05187 4.22167,-3.51532 5.41611,-5.37463 0.86996,-1.354198 2.19859,-4.238573 2.20224,-4.780898 6.8e-4,-0.10405 0.10561,-0.564828 0.23313,-1.02395 0.17644,-0.635237 0.40304,-0.89444 0.94805,-1.084433 0.39391,-0.137316 0.76876,-0.197106 0.833,-0.132869 0.30386,0.303865 -0.75717,3.863307 -1.76617,5.924988 -2.68351,5.483172 -7.49178,9.241152 -13.41161,10.482052 -0.78932,0.16545 -1.42732,0.23638 -1.41777,0.15761 z m -7.31608,-0.40316 c -2.095925,-0.55559 -5.690959,-2.44258 -7.409203,-3.889 -3.504437,-2.95004 -5.658623,-6.521563 -6.596455,-10.93657 l -0.297473,-1.400402 0.942353,0.321092 c 0.89394,0.304596 0.957838,0.38826 1.243744,1.628489 0.165765,0.719069 0.640296,2.04379 1.054514,2.943828 2.194044,4.767353 6.270459,8.247303 11.29046,9.638413 0.91394,0.25327 1.68642,0.48863 1.71662,0.52304 0.0302,0.0344 0.12638,0.39612 0.21373,0.80382 0.14416,0.67291 0.1098,0.73937 -0.37251,0.72056 -0.29222,-0.0114 -1.09582,-0.17037 -1.78578,-0.35327 z M 54.447905,69.900036 c 0.0167,-1.918014 1.950799,-6.52206 3.707877,-8.826436 2.838533,-3.722687 6.934418,-6.326492 11.436225,-7.270149 l 1.45474,-0.304941 -0.2638,0.911153 c -0.24639,0.851027 -0.3446,0.931831 -1.48822,1.224506 -3.195055,0.817673 -5.747566,2.241162 -8.015789,4.470259 -2.482788,2.439961 -3.89845,4.794006 -4.766266,7.925626 -0.253266,0.91394 -0.488631,1.683176 -0.523034,1.709408 -0.0344,0.02623 -0.396125,0.160232 -0.803827,0.297776 -0.643769,0.217187 -0.740833,0.199139 -0.737906,-0.137202 z m 37.197282,0.09587 c -0.67789,-0.245132 -0.81465,-0.43333 -1.08632,-1.494875 -0.80452,-3.143637 -2.22789,-5.713587 -4.41171,-7.965503 -2.37574,-2.449822 -4.84667,-3.937822 -7.98162,-4.806562 -0.91394,-0.253266 -1.70158,-0.500351 -1.75031,-0.549079 -0.0487,-0.04873 -0.1809,-0.410449 -0.29372,-0.803827 -0.24535,-0.855506 -0.14094,-0.874011 2.03621,-0.360869 3.05486,0.720013 6.98458,3.00051 9.28326,5.38726 1.50036,1.557847 3.20372,4.210565 3.95558,6.160204 0.70211,1.820632 1.42804,4.762622 1.16737,4.731039 -0.0788,-0.0095 -0.4922,-0.143547 -0.91874,-0.297788 z"
       id="path4746" />
  </g>
  <g
     inkscape:groupmode="layer"
     id="layer4"
     inkscape:label="threatstryker"
     style="display:none">
    <path
       style="display:inline;fill:#ffffff;stroke-width:0.225398"
       d="M 70.961576,93.235322 C 67.58155,91.633749 65.436211,90.064084 63.2965,87.627067 58.500395,82.164561 56.000552,73.838907 55.667147,62.217728 c -0.151518,-5.281279 -0.260648,-4.962805 1.792331,-5.230534 2.633488,-0.343433 5.107109,-2.572943 5.841996,-5.265474 0.128458,-0.47065 0.336862,-0.982514 0.463122,-1.137475 0.177062,-0.217312 2.375398,-0.280959 9.612347,-0.278296 5.160533,0.0019 9.521201,0.09114 9.690377,0.198322 0.169175,0.107179 0.505904,0.782294 0.748284,1.500254 0.242382,0.717961 0.729074,1.724526 1.081536,2.236813 1.029442,1.49624 3.223442,2.787789 4.778922,2.813218 0.33284,0.0054 0.881,0.114764 1.21812,0.242939 l 0.61296,0.233046 -0.14029,3.880475 c -0.63444,17.548896 -5.31875,27.152676 -15.592096,31.966929 -1.029595,0.482484 -2.059904,0.872304 -2.289574,0.866263 -0.229672,-0.006 -1.365295,-0.460038 -2.523606,-1.008886 z m 5.463277,-1.974521 c 4.983374,-2.543031 8.135368,-6.08897 10.261319,-11.54381 1.86357,-4.7816 3.16355,-12.601857 3.17128,-19.077431 l 0.002,-1.947152 -0.84524,-0.153261 c -1.37252,-0.248867 -3.02006,-1.108824 -4.243648,-2.215033 -1.102358,-0.99661 -2.574656,-3.330261 -2.574656,-4.080931 0,-0.327318 -0.851481,-0.362897 -8.684913,-0.362897 -8.074107,0 -8.693586,0.02774 -8.808222,0.394447 -1.010508,3.232491 -3.812086,5.827941 -6.769502,6.271433 l -0.936991,0.14051 0.09725,2.288115 c 0.473097,11.131093 2.269051,18.481754 5.790751,23.700965 1.287914,1.908708 3.388069,4.038412 5.113582,5.18553 2.160418,1.436243 5.179786,2.845901 5.735039,2.677528 0.253749,-0.07695 1.46498,-0.652051 2.691625,-1.278013 z M 70.916994,90.192822 C 66.947794,88.132079 64.37852,85.477724 62.304161,81.29478 59.868726,76.383727 58.414586,69.348817 58.278707,61.820237 l -0.03824,-2.118864 1.33032,-0.481697 c 2.509538,-0.908682 4.51433,-2.684348 5.67799,-5.029056 l 0.587283,-1.183342 h 7.687847 7.687847 l 0.656649,1.373868 c 0.444853,0.93074 1.141954,1.83168 2.16128,2.793261 1.407514,1.327778 1.876029,1.590279 4.452869,2.494888 0.25715,0.09027 0.28465,0.644001 0.15354,3.091482 -0.82834,15.46299 -5.149694,24.27912 -13.769818,28.09221 -0.586897,0.259612 -1.231692,0.468507 -1.43288,0.464208 -0.201186,-0.0043 -1.333565,-0.510266 -2.516398,-1.124373 z m 4.312902,-1.301135 c 3.425103,-1.720673 5.827663,-4.125142 7.737543,-7.743693 2.287868,-4.334707 3.649793,-10.192503 4.090523,-17.593818 l 0.15714,-2.63891 -1.467022,-0.700758 c -1.867897,-0.892244 -3.761009,-2.577935 -4.817612,-4.289763 l -0.826894,-1.339678 -6.673567,0.0017 -6.673565,0.0017 -0.544296,0.956207 c -1.22873,2.158606 -3.38122,4.105471 -5.519787,4.992486 l -0.879918,0.364964 0.138454,2.894548 c 0.535864,11.202841 3.843124,19.671871 9.224841,23.622413 0.958909,0.703904 3.908987,2.325438 4.234215,2.32737 0.06432,4.5e-4 0.8833,-0.384296 1.819945,-0.85484 z m -2.331347,-1.191106 c -0.56362,-0.32828 -0.517808,-1.477854 0.07146,-1.793223 0.362425,-0.193964 0.587716,-0.16954 1.014293,0.109965 0.651742,0.427038 0.705349,1.038593 0.136186,1.553678 -0.473253,0.428289 -0.672765,0.449447 -1.221943,0.12958 z m -5.75893,-4.084197 c -0.632242,-0.632243 -0.155914,-1.758108 0.743815,-1.758108 0.260335,0 0.595052,0.121715 0.743815,0.270478 0.148762,0.148763 0.270478,0.48348 0.270478,0.743815 0,0.260335 -0.121716,0.595052 -0.270478,0.743815 -0.148763,0.148763 -0.48348,0.270478 -0.743815,0.270478 -0.260335,0 -0.595052,-0.121715 -0.743815,-0.270478 z m 11.128242,-0.08372 c -0.452809,-0.45281 -0.445326,-0.610314 0.05857,-1.2326 0.805804,-0.995125 2.22709,-0.0062 1.620376,1.127488 -0.294449,0.550181 -1.178527,0.605533 -1.678946,0.105112 z M 63.882612,77.557652 c -0.452792,-0.263728 -0.522553,-1.116072 -0.123969,-1.514655 0.632242,-0.632243 1.758107,-0.155915 1.758107,0.743815 0,0.891227 -0.788698,1.263263 -1.634138,0.77084 z m 17.766226,-0.110745 c -0.415349,-0.415349 -0.437868,-0.646089 -0.12087,-1.238409 0.282323,-0.527525 1.176818,-0.571421 1.666458,-0.08178 0.440019,0.440018 0.44033,0.549521 0.0033,1.173437 -0.410672,0.586316 -1.048878,0.646783 -1.548909,0.146753 z M 62.192124,70.889875 c -0.391059,-0.157797 -0.35367,-1.313624 0.05342,-1.651481 0.45155,-0.374754 1.403803,-0.109036 1.57818,0.440377 0.302605,0.953424 -0.603453,1.625972 -1.631602,1.211104 z M 83.333522,70.71346 c -0.704233,-0.848548 0.200012,-1.987525 1.211891,-1.526484 1.000717,0.455959 0.660913,1.852176 -0.450775,1.852176 -0.269948,0 -0.61245,-0.146561 -0.761116,-0.325692 z M 61.564138,63.510225 c -0.359275,-0.262708 -0.394382,-0.424706 -0.207593,-0.957943 0.386796,-1.104215 1.906221,-0.911043 1.906221,0.242347 0,0.956474 -0.868713,1.322445 -1.698628,0.715596 z m 22.338684,-0.03802 c -0.415349,-0.415349 -0.437868,-0.64609 -0.12087,-1.23841 0.282323,-0.527523 1.176819,-0.571421 1.666458,-0.08178 0.440022,0.440018 0.440332,0.549521 0.0033,1.173439 -0.410672,0.586315 -1.048878,0.646782 -1.548909,0.146752 z M 67.504741,57.628861 c -0.211798,-0.464846 -0.185311,-0.641054 0.152466,-1.014293 0.224836,-0.248441 0.580212,-0.451712 0.789723,-0.451712 0.209511,0 0.564886,0.203271 0.789723,0.451712 0.607144,0.670887 0.153412,1.576874 -0.789723,1.576874 -0.512555,0 -0.75063,-0.142155 -0.942189,-0.562581 z m 5.269838,0.292103 c -0.373656,-0.373657 -0.338922,-1.19531 0.06469,-1.53028 0.45155,-0.374753 1.403804,-0.109035 1.578181,0.440377 0.317753,1.001154 -0.914277,1.818499 -1.642873,1.089903 z m 4.916116,-0.06469 c -0.344057,-0.414563 -0.118781,-1.437517 0.356758,-1.619998 0.190164,-0.07297 0.592859,-0.02009 0.894877,0.117518 0.597786,0.27237 0.745073,1.100746 0.278644,1.567173 -0.373656,0.373657 -1.19531,0.338922 -1.530279,-0.06469 z"
       id="path5248" />
  </g>
  <g
     inkscape:groupmode="layer"
     id="layer5"
     inkscape:label="cloud"
     style="display:none">
    <path
       style="fill:#ffffff;stroke-width:0.207267"
       d="M 71.799794,92.708343 C 68.008423,90.959979 65.372443,88.442897 63.582742,84.861925 62.964525,83.624947 62.242211,81.863623 61.9776,80.947873 L 61.496491,79.28287 59.770937,79.150234 c -3.755156,-0.288644 -6.658168,-2.122467 -8.146798,-5.146304 -1.798388,-3.653045 -1.084478,-8.028565 1.777973,-10.897109 1.131243,-1.13365 3.128458,-2.236297 4.424569,-2.442771 1.646784,-0.262337 1.593023,-0.217503 2.044956,-1.705397 1.410484,-4.643712 6.147977,-8.026673 10.701967,-7.64209 2.851898,0.240842 5.353097,1.446847 7.262901,3.501958 1.083001,1.165399 1.123669,1.187115 1.999335,1.067571 1.242294,-0.169595 3.085402,0.212634 4.770396,0.989298 2.293453,1.057121 4.222096,3.366878 4.90981,5.880023 0.208343,0.761359 0.311413,0.849647 1.390164,1.19078 6.21234,1.964519 7.34988,10.303976 1.89372,13.883095 -1.57956,1.036151 -2.259709,1.222171 -5.004947,1.368841 l -2.468987,0.131909 -0.360856,1.282007 c -1.284339,4.562849 -3.861761,8.423611 -7.029412,10.529461 -1.590433,1.057317 -3.944431,2.187252 -4.50765,2.163702 -0.201998,-0.0084 -0.934727,-0.277035 -1.628284,-0.596865 z m 3.59737,-1.43681 c 5.045425,-2.537107 7.751771,-6.518228 9.15985,-13.47443 0.693613,-3.426588 1.194234,-10.348157 0.759265,-10.497569 -2.215285,-0.76095 -2.798762,-1.077862 -3.766828,-2.045928 -0.620605,-0.620604 -1.213683,-1.464857 -1.433635,-2.040794 L 79.740669,62.230506 H 73.34355 c -5.953575,0 -6.397254,0.02515 -6.399064,0.362717 -0.0031,0.570375 -1.149964,2.425017 -1.878948,3.038417 -0.8791,0.739714 -2.000783,1.297761 -2.976412,1.48079 l -0.796317,0.14939 0.139136,2.614202 c 0.357594,6.718773 1.350453,11.125038 3.372119,14.965311 1.046981,1.988802 2.728125,4.001904 4.183077,5.009067 1.46734,1.015741 3.809228,2.214994 4.337353,2.221109 0.259024,0.003 1.191725,-0.356991 2.07267,-0.799976 z M 71.91354,90.556329 c -1.967192,-0.984853 -3.129078,-1.839079 -4.340199,-3.190945 -3.107229,-3.468326 -4.798596,-8.920012 -5.30533,-17.10036 -0.127364,-2.056073 -0.108405,-2.235257 0.249436,-2.357492 2.310574,-0.78927 3.978023,-2.127381 4.821051,-3.868845 l 0.473981,-0.979113 5.629538,4.98e-4 5.629536,4.97e-4 0.598994,1.14635 c 0.751278,1.437795 2.309767,2.855914 3.712575,3.378193 l 1.077374,0.401118 0.06685,1.422934 c 0.146281,3.113641 -0.72137,8.615008 -1.87426,11.88379 -1.652762,4.686074 -3.933628,7.479943 -7.541355,9.23753 -0.80994,0.394581 -1.556101,0.714398 -1.658137,0.710702 -0.102035,-0.0037 -0.795059,-0.311877 -1.540054,-0.684848 z m 3.189631,-1.326045 c 0.948327,-0.495561 2.015734,-1.306123 2.967096,-2.253142 3.052042,-3.038104 4.820399,-8.33892 5.36376,-16.078373 l 0.140836,-2.00599 -1.258685,-0.635382 c -1.385286,-0.69929 -2.948065,-2.178876 -3.574526,-3.384236 l -0.403959,-0.777252 h -4.860194 -4.860193 l -0.698046,1.088152 c -0.870063,1.356304 -2.087753,2.465436 -3.482935,3.172428 l -1.07412,0.544298 0.131943,2.156444 c 0.479605,7.838527 2.418454,13.272648 5.876644,16.470799 1.170863,1.082822 3.382723,2.459166 3.970609,2.470738 0.154325,0.003 0.947121,-0.342781 1.76177,-0.768484 z m -2.036268,-0.750409 c -0.424879,-0.310678 -0.358894,-0.930349 0.131983,-1.239455 0.250348,-0.157643 0.435644,-0.142521 0.673618,0.05498 0.753007,0.624941 -0.01884,1.759774 -0.805601,1.184475 z m -4.099618,-2.844794 c -0.451787,-0.263142 -0.468925,-0.880831 -0.03444,-1.24142 0.646144,-0.536251 1.455842,0.50311 0.907064,1.164346 -0.292066,0.351916 -0.386434,0.360253 -0.872621,0.07707 z m 8.064854,-0.08338 c -0.640037,-0.640037 0.107008,-1.567715 0.91446,-1.135579 0.452802,0.242332 0.492676,0.466952 0.184961,1.041925 -0.256259,0.478824 -0.6783,0.514777 -1.099421,0.09365 z M 66.366084,81.050355 c -0.618813,-0.618813 0.06751,-1.587538 0.834079,-1.177281 0.610989,0.32699 0.33557,1.426001 -0.357365,1.426001 -0.125397,0 -0.339918,-0.111924 -0.476714,-0.24872 z m 13.134218,-0.02616 C 79.244816,80.837382 79.168251,80.61111 79.26131,80.31791 c 0.192607,-0.606857 0.645558,-0.718647 1.174941,-0.289977 0.383815,0.310795 0.41561,0.434685 0.210105,0.818676 -0.277595,0.51869 -0.60928,0.570086 -1.146054,0.177586 z M 65.097584,76.033713 c -0.425552,-0.512758 -0.07755,-1.195187 0.57122,-1.12015 0.461177,0.05334 0.552193,0.166356 0.552193,0.685668 0,0.472569 -0.103841,0.636637 -0.432671,0.683621 -0.237969,0.034 -0.548804,-0.07811 -0.690742,-0.249139 z m 15.514052,-0.03732 c -0.196916,-0.237271 -0.212448,-0.42401 -0.05603,-0.673618 0.524276,-0.836613 1.783321,-0.289488 1.321139,0.574109 -0.272393,0.508969 -0.885281,0.557177 -1.265113,0.09951 z M 64.523369,70.596649 c -0.156495,-0.407821 0.170186,-0.984307 0.606534,-1.070332 0.528227,-0.104139 1.022653,0.541831 0.77249,1.009265 -0.2633,0.491979 -1.197788,0.533361 -1.379024,0.06107 z m 16.502801,0.0108 c -0.196916,-0.23727 -0.212448,-0.424011 -0.05603,-0.673618 0.524276,-0.836612 1.783322,-0.289487 1.321139,0.574109 -0.272393,0.50897 -0.885281,0.557177 -1.265113,0.09951 z m -11.644351,-3.83367 c -0.451787,-0.263141 -0.468925,-0.880831 -0.03444,-1.241419 0.646144,-0.536252 1.455842,0.503108 0.907064,1.164345 -0.292065,0.351917 -0.386434,0.360252 -0.872621,0.07707 z m 3.730807,0 c -0.451786,-0.263141 -0.468925,-0.880831 -0.03444,-1.241419 0.646145,-0.536252 1.455842,0.503108 0.907065,1.164345 -0.292066,0.351917 -0.386435,0.360252 -0.872621,0.07707 z m 3.614434,-0.138848 c -0.326219,-0.280807 -0.379719,-0.468032 -0.236908,-0.829068 0.211562,-0.534835 0.56981,-0.591091 1.134532,-0.178156 0.338332,0.247394 0.359242,0.364768 0.147692,0.829068 -0.289923,0.636309 -0.476185,0.668055 -1.045316,0.178156 z M 61.062859,77.205551 C 60.651477,75.131073 60.443574,72.662255 60.431468,69.70789 l -0.01395,-3.404135 1.399692,-0.34276 c 1.97132,-0.482741 3.662123,-1.959467 4.019876,-3.51091 0.06728,-0.291764 0.253284,-0.740338 0.413346,-0.996831 l 0.29102,-0.46635 h 6.795419 c 5.123413,0 6.876036,0.06375 7.123066,0.259083 0.180204,0.142497 0.444455,0.632165 0.58722,1.088152 0.619472,1.978544 2.142022,3.285873 4.337266,3.724168 l 1.148743,0.229354 0.06764,1.339512 c 0.08084,1.600718 -0.29759,6.54297 -0.661998,8.645676 l -0.260423,1.502686 h 2.031484 c 2.358878,0 3.625611,-0.383357 5.006981,-1.515286 2.01688,-1.652687 2.76114,-4.698049 1.78233,-7.29294 -0.83147,-2.204255 -2.63309,-3.610757 -5.309047,-4.144695 -0.592642,-0.118251 -0.681579,-0.235433 -0.879653,-1.159023 -0.508029,-2.368852 -2.149789,-4.547712 -4.256934,-5.649584 -1.18455,-0.619428 -1.374773,-0.654532 -3.57141,-0.659068 l -2.320216,-0.0048 -0.59937,-0.824277 C 75.221207,53.30596 71.18822,51.93403 67.424646,53.077181 c -3.396842,1.031759 -5.842827,3.761217 -6.569763,7.331155 l -0.265529,1.303994 -1.387831,0.138952 c -1.632855,0.163485 -3.55759,1.008486 -4.837865,2.123931 -2.67461,2.330262 -3.118954,7.164187 -0.957834,10.420054 1.376081,2.073153 3.817266,3.346677 6.458174,3.369113 l 1.311887,0.01115 z"
       id="path5481" />
  </g>
  <g
     inkscape:groupmode="layer"
     id="layer7"
     inkscape:label="packetstreamer"
     style="display:none">
    <path
       style="fill:#ffffff;stroke-width:0.230532"
       d="m 84.975361,92.120745 c 0,-0.908322 0.06951,-1.027849 0.800527,-1.376444 4.589006,-2.188345 6.74515,-18.18363 3.906647,-28.981324 -1.012948,-3.853263 -3.100072,-7.377052 -4.369398,-7.377052 -0.247378,0 -0.337776,-0.281795 -0.337776,-1.052934 0,-1.162223 0.0816,-1.181384 1.750035,-0.410986 1.649232,0.76153 3.423652,3.407388 4.464722,6.657397 2.757144,8.607235 2.297542,21.587342 -1.01274,28.6018 -1.127339,2.388827 -2.365649,3.89482 -3.703555,4.504149 -1.359861,0.619329 -1.498462,0.567107 -1.498462,-0.564606 z M 66.700939,90.338488 c -0.604848,-0.245567 -2.160945,-1.157956 -3.457994,-2.027531 -3.493372,-2.342048 -3.49332,-2.34203 -6.150615,-2.34203 H 54.775554 V 84.93153 83.894132 h 2.187589 c 2.770515,0 3.676856,0.333962 7.108685,2.619362 4.461762,2.971274 4.708475,2.967473 8.286266,-0.127701 2.238733,-1.936743 3.639126,-2.62896 5.758914,-2.846642 l 1.556097,-0.159797 v -0.895277 c 0,-0.492399 0.06426,-0.895274 0.14281,-0.895274 0.244817,0 5.616458,3.104611 5.61854,3.247309 0.0011,0.07431 -1.32071,0.709364 -2.937323,1.411226 l -2.939295,1.276112 -0.07149,-1.037904 -0.07149,-1.037906 -1.271133,0.149397 c -1.665947,0.195797 -2.603282,0.702793 -4.695,2.539476 -2.967972,2.606098 -4.511651,3.109841 -6.747778,2.201975 z m 0,-12.218241 c -0.604848,-0.245568 -2.160945,-1.157957 -3.457994,-2.027531 -3.493372,-2.342049 -3.49332,-2.34203 -6.150615,-2.34203 H 54.775554 V 72.713287 71.67589 h 2.187589 c 2.770515,0 3.676856,0.333963 7.108685,2.619361 4.461762,2.971275 4.708475,2.967474 8.286266,-0.127699 2.238733,-1.936744 3.639126,-2.628962 5.758914,-2.846644 l 1.556097,-0.159796 v -0.895275 c 0,-0.492402 0.06426,-0.895275 0.14281,-0.895275 0.244817,0 5.616458,3.10461 5.61854,3.247308 0.0011,0.07431 -1.32071,0.709364 -2.937323,1.411226 l -2.939295,1.276112 -0.07149,-1.037906 -0.07149,-1.037904 -1.271133,0.149397 c -1.665947,0.1958 -2.603282,0.702794 -4.695,2.539477 -2.967972,2.606097 -4.511651,3.109838 -6.747778,2.201975 z m 0,-12.448775 c -0.604848,-0.245567 -2.160945,-1.157957 -3.457994,-2.027533 -3.493372,-2.342048 -3.49332,-2.342028 -6.150615,-2.342028 h -2.316776 v -1.037398 -1.037398 h 2.187589 c 2.770515,0 3.676856,0.333962 7.108685,2.619363 4.461762,2.971274 4.708475,2.967472 8.286266,-0.127702 2.238733,-1.936744 3.639126,-2.62896 5.758914,-2.846643 l 1.556097,-0.159797 v -0.895275 c 0,-0.492401 0.06426,-0.895275 0.14281,-0.895275 0.244817,0 5.616458,3.104612 5.61854,3.247308 0.0011,0.07432 -1.32071,0.709365 -2.937323,1.411227 l -2.939295,1.276112 -0.07149,-1.037905 -0.07149,-1.037905 -1.271133,0.149396 c -1.665947,0.1958 -2.603282,0.702796 -4.695,2.539477 -2.967972,2.606098 -4.511651,3.109841 -6.747778,2.201976 z"
       id="path6905" />
  </g>
  <g
     inkscape:groupmode="layer"
     id="layer8"
     inkscape:label="flowmeter"
     style="display:none">
    <path
       style="fill:#ffffff;stroke-width:0.218247"
       d="m 62.201217,76.417345 v -8.293412 h 2.182476 2.182477 v 8.293412 8.293413 h -2.182477 -2.182476 z m 7.420421,-5.347068 V 57.429795 h 2.291601 2.291601 v 13.640482 13.640481 h -2.291601 -2.291601 z m 7.638669,5.347068 v -8.293412 h 2.291601 2.291601 v 8.293412 8.293413 h -2.291601 -2.291601 z m 7.63867,4.255831 v -4.037583 h 2.291601 2.291601 v 4.037583 4.037582 H 87.190578 84.898977 Z M 68.039343,79.448062 C 67.745773,79.282661 67.657409,78.94645 67.657409,77.99486 v -1.238018 l 0.449888,0.449887 c 0.350603,0.350604 0.43489,0.671305 0.381933,1.453203 -0.05984,0.883462 -0.113578,0.97761 -0.449887,0.78813 z m 7.256735,-1.217082 c 0,-1.032315 0.09239,-1.3931 0.436496,-1.704511 0.431888,-0.390852 0.436495,-0.381198 0.436495,0.914464 0,1.032312 -0.09239,1.393098 -0.436495,1.704509 -0.431888,0.390853 -0.436496,0.381198 -0.436496,-0.914462 z m 13.531358,-5.228683 v -1.010789 l -2.455287,0.12644 c -1.350407,0.06954 -2.676262,0.192908 -2.946344,0.274145 -0.458486,0.137906 -0.491057,0.08242 -0.491057,-0.836517 0,-0.714894 0.09894,-1.022185 0.361562,-1.122963 0.198859,-0.07631 1.57101,-0.200042 3.049222,-0.274962 l 2.687661,-0.136217 0.16993,-0.843022 0.169932,-0.843023 2.700885,1.678972 2.700887,1.678972 -2.155267,0.835527 c -1.185396,0.45954 -2.52356,0.981484 -2.973695,1.159876 l -0.818429,0.32435 z m -28.800379,0.221156 c -0.877469,-0.465244 -1.249882,-0.516318 -3.764773,-0.516318 h -2.790975 v -0.85562 -0.85562 l 1.451864,-0.155481 c 1.879526,-0.20128 4.362964,-0.0088 5.382314,0.417071 0.776609,0.324488 0.804491,0.374344 0.804491,1.438513 0,0.606307 -0.02456,1.08919 -0.05456,1.073075 -0.03001,-0.01612 -0.492771,-0.261644 -1.028359,-0.54562 z"
       id="path7087" />
  </g>
  <g
     inkscape:groupmode="layer"
     id="layer9"
     inkscape:label="yaradare"
     style="display:none">
    <path
       style="display:none;fill:#ffffff;stroke-width:0.258575"
       d="m 91.424107,89.265188 c -0.426648,-0.267277 -2.492013,-2.224575 -4.5897,-4.349565 -3.620109,-3.667224 -3.813977,-3.91564 -3.813977,-4.88734 0,-0.892941 -0.174225,-1.195787 -1.363752,-2.370535 l -1.363751,-1.346812 -1.409752,0.949383 c -3.123076,2.103204 -7.73977,2.920254 -11.506513,2.036391 -6.426293,-1.507922 -11.193619,-6.676317 -12.053787,-13.06786 -1.005459,-7.471141 3.835383,-14.755195 11.278064,-16.970191 2.05724,-0.612253 5.912945,-0.608767 8.015813,0.0072 2.645225,0.774888 5.020529,2.189036 7.020101,4.179454 5.032159,5.009115 5.909367,12.626783 2.16168,18.772039 l -0.996093,1.633336 1.328392,1.357516 c 0.987681,1.009337 1.517398,1.357517 2.065304,1.357517 0.405303,0 0.99107,0.128856 1.301706,0.286335 0.310636,0.157486 2.339165,2.046808 4.507842,4.198501 4.238136,4.204937 4.539415,4.698898 3.951834,6.479277 -0.653208,1.979247 -2.820027,2.808663 -4.533411,1.735315 z M 73.391179,76.952185 c 2.496502,-0.58861 4.636452,-1.804039 6.546172,-3.718032 5.167049,-5.178613 5.072683,-13.098884 -0.218974,-18.378922 -5.209401,-5.197964 -13.114085,-5.116628 -18.408481,0.189416 -5.197963,5.209399 -5.116626,13.114087 0.189419,18.408479 3.294506,3.287276 7.518578,4.530164 11.891864,3.499059 z m -3.299483,-1.389814 c 0,-0.886054 0.112122,-1.109892 0.71108,-1.419534 0.391095,-0.202187 1.060156,-0.408802 1.486804,-0.459146 0.74799,-0.08827 0.77863,-0.05098 0.856954,1.042536 0.04466,0.623742 -0.01352,1.222777 -0.129284,1.331189 -0.115781,0.108417 -0.8214,0.278062 -1.568033,0.376998 L 70.0917,76.614293 Z m -3.038253,-0.215664 c -0.177769,-0.06429 -0.323217,-0.372221 -0.323217,-0.684268 0,-0.605395 -0.6534,-1.7115 -1.212624,-2.052788 -0.452648,-0.276243 -0.439511,-1.473955 0.01616,-1.473955 0.803941,0 2.885616,-1.158402 3.894295,-2.167081 3.008784,-3.008785 3.272965,-7.548601 0.64008,-10.999452 l -1.069208,-1.401381 1.019231,0.754947 c 3.135211,2.322255 4.896899,6.392698 4.307966,9.953716 -0.225618,1.364215 -0.20567,1.600325 0.143584,1.699635 1.001635,0.28481 3.14765,1.491497 3.998095,2.2481 1.069059,0.951094 1.169888,1.500885 0.372371,2.030417 -0.500691,0.332446 -0.724779,0.305477 -2.109649,-0.253896 -2.775421,-1.121044 -6.529306,-0.385586 -8.578153,1.680619 -0.426648,0.430264 -0.921172,0.729688 -1.098943,0.665387 z m -5.923655,-3.494965 c -0.984499,-1.093192 -0.967966,-1.242143 0.09697,-0.87346 0.648655,0.224569 0.978427,0.497011 0.978427,0.808323 0,0.69923 -0.478244,0.728198 -1.075379,0.06513 z m 4.824713,-3.043218 c -1.451072,-0.608888 -3.286929,-0.64625 -4.664805,-0.09493 -1.363037,0.54538 -2.108101,0.233358 -2.501196,-1.047469 -0.261477,-0.851966 -0.235418,-0.977941 0.270803,-1.309147 0.692639,-0.453173 3.380754,-1.168498 4.391098,-1.168498 1.593582,0 5.022216,1.184475 5.941577,2.052612 0.203917,0.192555 -1.711037,2.097782 -2.080705,2.070136 -0.106248,-0.0079 -0.716801,-0.234163 -1.356772,-0.5027 z M 54.706502,88.686016 c -0.711081,-0.09586 -1.729217,-0.361957 -2.262528,-0.591366 -1.087477,-0.467801 -1.335913,-0.795202 -0.306385,-0.403778 0.97163,0.369416 2.700788,0.308014 4.024138,-0.142901 3.145905,-1.07192 4.941991,-4.369082 4.362573,-8.0086 -0.09537,-0.599058 -0.03581,-0.750929 0.261536,-0.666852 0.211769,0.05987 0.966826,0.120107 1.677907,0.133835 l 1.292873,0.02497 -0.08309,1.352595 c -0.182056,2.963379 1.409395,5.763539 3.94734,6.945348 1.521745,0.708604 3.573987,0.808024 4.935602,0.239113 1.476259,-0.616827 1.012675,-0.16738 -0.590098,0.572097 -1.178373,0.543666 -1.889104,0.688207 -3.426114,0.696778 -2.169621,0.01208 -3.53535,-0.429871 -5.345467,-1.729794 l -1.1204,-0.804587 -0.581047,0.53233 c -1.570392,1.438747 -4.307035,2.185054 -6.786836,1.85081 z m 2.905577,-5.643449 c -2.136092,-1.354671 -3.552014,-4.006732 -3.552014,-6.653023 0,-1.241612 0.254908,-1.361448 1.771438,-0.832781 0.71108,0.247882 0.815029,0.403585 0.819989,1.228229 0.0032,0.519395 0.219283,1.414607 0.480353,1.989354 0.458624,1.009652 1.86708,2.445762 2.398673,2.445762 0.237251,0 0.155069,0.84946 -0.2064,2.133238 -0.170205,0.604513 -0.308314,0.579435 -1.712039,-0.310779 z m 7.312052,0.127185 c -0.464179,-1.22088 -0.314608,-1.88358 0.578947,-2.565132 0.769912,-0.587234 0.945981,-0.619515 2.070938,-0.37958 l 1.229489,0.262226 -0.494211,0.689635 c -0.592031,0.826153 -1.453444,1.622838 -2.415508,2.234036 -0.699369,0.444307 -0.710042,0.441647 -0.969655,-0.241185 z m -17.721589,-4.23213 c 0.241041,-2.888607 2.238319,-5.70328 4.917331,-6.929772 l 1.368507,-0.626524 4.92e-4,-2.12677 c 3.01e-4,-1.332714 0.147242,-2.464666 0.393557,-3.031781 l 0.393073,-0.90501 0.162701,0.775724 c 0.857741,4.089524 1.735649,6.10386 3.747662,8.598911 0.717348,0.889567 1.304269,1.674987 1.304269,1.745379 0,0.329252 -0.612198,0.05201 -1.672715,-0.757493 -2.594956,-1.980777 -6.299826,-1.703763 -8.650382,0.646792 -0.888674,0.888676 -1.542789,2.013131 -1.868646,3.212295 -0.155069,0.57065 -0.180405,0.411576 -0.09585,-0.601751 z"
       id="path7237" />
  </g>
  <g
     inkscape:groupmode="layer"
     id="layer10"
     inkscape:label="secretscanner">
    <path
       style="fill:#ffffff;stroke-width:0.258409"
       d="m 91.110446,89.066608 c -1.166231,-0.757401 -6.797973,-6.346579 -7.573148,-7.515909 -0.232966,-0.351405 -0.423553,-1.053087 -0.423553,-1.559286 0,-0.770582 -0.226016,-1.143579 -1.388804,-2.291919 L 80.336136,76.32794 79.33103,76.962437 c -4.453188,2.811174 -8.95472,3.433327 -13.562388,1.874439 -2.581709,-0.873454 -4.407762,-2.057623 -6.388463,-4.142835 -2.988215,-3.145884 -4.206312,-6.176113 -4.206312,-10.463912 0,-4.491366 1.427478,-7.889942 4.669109,-11.116309 3.120733,-3.106038 6.476833,-4.48154 10.885906,-4.4616 4.176677,0.01889 7.566436,1.470406 10.73194,4.595485 1.583459,1.563244 2.324639,2.539817 3.039908,4.005356 2.387449,4.891717 2.162394,10.196521 -0.628914,14.824578 l -1.069376,1.773049 1.374271,1.391558 c 1.161153,1.175756 1.519909,1.391561 2.313365,1.391561 1.265928,0 2.261527,0.771905 6.229222,4.829627 2.643456,2.703432 3.309258,3.533987 3.454778,4.309679 0.370852,1.976874 -1.211659,4.039597 -3.099171,4.039597 -0.46164,0 -1.314227,-0.323811 -1.964459,-0.746102 z M 74.069398,76.71873 c 4.188753,-1.146997 7.797068,-4.576031 9.062741,-8.612454 1.916254,-6.111237 -1.126183,-13.139661 -6.887343,-15.91067 -7.985206,-3.840729 -17.498922,1.292885 -18.744905,10.114774 -0.841876,5.960724 2.907721,12.176984 8.567263,14.20321 2.39984,0.85919 5.338576,0.934527 8.002244,0.205151 z m -0.258422,-2.798227 2.444687,-2.454896 h -4.037464 -4.037465 l -0.867219,2.063908 c -0.867581,2.064765 -1.061488,2.266848 -1.754402,1.828372 -0.30976,-0.19602 -0.23874,-0.532358 0.434021,-2.055516 l 0.804389,-1.821146 -3.116358,-0.07239 C 60.776603,71.341355 60.53861,71.296916 60.179304,70.755003 L 59.7938,70.173582 h 3.520054 c 1.966078,0 3.520054,-0.10478 3.520054,-0.237325 0,-0.237453 -1.60677,-5.434693 -1.943839,-6.287515 -0.156816,-0.39674 -0.571594,-0.452217 -3.381211,-0.452217 -3.14986,0 -3.202421,-0.0096 -3.198947,-0.581423 0.0021,-0.319781 0.07363,-0.843059 0.159334,-1.162842 l 0.155817,-0.581423 h 6.887338 6.88734 l 3.677323,4.630226 c 2.022528,2.546624 3.737034,4.785833 3.810018,4.976027 0.07722,0.201267 -0.874159,1.348464 -2.276355,2.744828 -2.105812,2.097061 -2.586029,2.44614 -3.815031,2.773209 -2.612718,0.695318 -2.611748,0.563404 0.01523,-2.074586 z m 2.84251,-3.94575 c 0,-0.109351 -1.136598,-1.650111 -2.525774,-3.423933 l -2.525765,-3.225125 -2.642423,-0.07363 c -1.458541,-0.04065 -2.642427,0.03111 -2.642427,0.160198 0,0.281944 1.418836,5.089409 1.790735,6.067575 l 0.263756,0.693731 h 4.140955 c 2.277521,0 4.140955,-0.08945 4.140955,-0.198803 z M 51.969772,80.254595 c -4.260703,-4.249115 -7.746734,-7.851823 -7.746734,-8.006014 0,-0.154191 1.323804,-1.963279 2.941785,-4.020194 l 2.941781,-3.739849 h 2.003278 2.003281 l 0.113784,0.775229 0.113788,0.77523 h -1.588554 -1.588537 l -1.386018,1.744267 c -0.76231,0.959348 -1.788378,2.241866 -2.280158,2.850043 l -0.894138,1.105781 3.576619,-0.07215 3.576622,-0.07212 0.503237,-1.679666 c 0.488224,-1.629543 0.51011,-1.656529 0.733562,-0.904434 0.126691,0.426376 0.166709,1.211297 0.08896,1.744269 -0.118919,0.815233 -0.06708,0.969035 0.326814,0.969035 0.481847,0 1.088376,0.460824 1.088376,0.826913 0,0.113699 -0.356686,0.206727 -0.792643,0.206727 -0.988403,0 -1.082461,-0.324478 1.822345,6.286589 l 2.251298,5.12375 1.274292,-2.965419 c 1.143303,-2.660591 1.319703,-2.932217 1.716049,-2.6424 0.407964,0.298311 0.362202,0.506439 -0.59822,2.720809 -0.571989,1.318781 -0.974164,2.4636 -0.893719,2.544043 0.08043,0.08045 1.102034,-0.794071 2.270207,-1.943366 l 2.123944,-2.089626 0.989826,0.294354 0.989829,0.29436 -1.894263,1.78769 c -1.041842,0.983232 -2.827038,2.693126 -3.967106,3.799759 l -2.072843,2.012063 z m 4.049813,-2.083007 -2.295246,-5.284725 -3.264791,-0.07231 c -1.801658,-0.03991 -3.264795,0.03129 -3.264795,0.158836 0,0.366189 10.945079,11.007935 11.037264,10.731378 0.04555,-0.136661 -0.950044,-2.626576 -2.212432,-5.533176 z"
       id="path7487" />
  </g>
  <style
     type="text/css"
     id="style95">
	.st0{fill:url(#SVGID_1_);}
	.st1{fill:url(#SVGID_00000073712553959374036150000000556718718013608579_);}
	.st2{fill:url(#SVGID_00000147928447666054646840000018246659662335041727_);}
</style>
</svg>
