<?xml version="1.0" encoding="UTF-8"?>
<svg xmlns="http://www.w3.org/2000/svg" xmlns:xlink="http://www.w3.org/1999/xlink" id="terminal" baseProfile="full" viewBox="0 0 640 360" width="640" version="1.1">
  <defs>
    <termtosvg:template_settings xmlns:termtosvg="https://github.com/nbedos/termtosvg">
      <termtosvg:screen_geometry columns="80" rows="19" />
      <termtosvg:animation type="css" />
    </termtosvg:template_settings>
    <style type="text/css" id="generated-style" />
    <style type="text/css" id="user-style">
        .foreground {fill: #cccccc;}
        .frame {fill: #E9E5ED;}
        .background {fill: #0c0c0c; }
        #title {
            font-family: "Segoe UI", Helvetica, Arial, sans-serif;
            font-size: 14px;
            fill: #0c0c0c;
        }

        #screen {
            font-family: Menlo, Monaco, 'Courier New', monospace;
            font-size: 14px;
        }
        
        .redc    {fill: #FF5F57; stroke: #E23B33;}
        .orangec {fill: #FEBC2E; stroke: #E09D0F;}
        .greenc  {fill: #28C840; stroke: #1EAE34;}

        .color0 {fill: #0c0c0c;}
        .color1 {fill: #c50f1f;}
        .color2 {fill: #13a10e;}
        .color3 {fill: #c19c00;}
        .color4 {fill: #0037da;}
        .color5 {fill: #881798;}
        .color6 {fill: #3a96dd;}
        .color7 {fill: #cccccc;}
        .color8 {fill: #767676;}
        .color9 {fill: #e74856;}
        .color10 {fill: #16c60c;}
        .color11 {fill: #f9f1a5;}
        .color12 {fill: #3b78ff;}
        .color13 {fill: #b4009e;}
        .color14 {fill: #61d6d6;}
        .color15 {fill: #f2f2f2;}
    </style>
    <linearGradient id="SVGID_1_" gradientUnits="userSpaceOnUse" x1="39.3564" y1="0.72289997" x2="39.3564" y2="70.880096">
      <stop offset="0" style="stop-color:#16C7F3" id="stop97" />
      <stop offset="1" style="stop-color:#1F72B3" id="stop99" />
    </linearGradient>
    <linearGradient id="SVGID_00000040559873967293563990000010313427330174422680_" gradientUnits="userSpaceOnUse" x1="91.808502" y1="0.72289997" x2="91.808502" y2="70.880096">
      <stop offset="0" style="stop-color:#16C7F3" id="stop104" />
      <stop offset="1" style="stop-color:#1F72B3" id="stop106" />
    </linearGradient>
    <linearGradient id="SVGID_00000068655785444952865200000007087109414417739179_" gradientUnits="userSpaceOnUse" x1="81.582703" y1="0.72289997" x2="81.582703" y2="70.880096">
      <stop offset="0" style="stop-color:#16C7F3" id="stop111" />
      <stop offset="1" style="stop-color:#1F72B3" id="stop113" />
    </linearGradient>
  </defs>
  <rect id="terminalui" class="frame" width="100%" height="100%" ry="5" />
  <circle cx="16" cy="15" r="6" class="redc" />
  <circle cx="36" cy="15" r="6" class="orangec" />
  <circle cx="56" cy="15" r="6" class="greenc" />
  <text id="title" x="80" y="9">Deepfence PRODUCTNAME</text>
  <rect id="bgtop" class="background" width="100%" height="15" x="0" y="30" />
  <rect id="bgmain" class="background" width="100%" height="330" x="0" y="30" ry="5" />
  <svg id="screen" width="640" height="326" x="0" y="32" viewBox="0 0 640 326" preserveAspectRatio="xMidYMin slice" />
  <g id="g120" transform="matrix(0.29443959,0,0,0.27768827,596.57409,5.3493447)">
    <polygon class="st0" points="78.7,53.1 71.1,43.6 54.2,22.5 46.9,13.3 43.6,9.2 36.3,0 21,0 15.3,0 0,0 10.1,13.3 25.4,13.3 31.1,13.3 34.4,17.3 39,22.5 63.5,53.1 60.6,56.7 33.2,22.5 28.6,17.3 13.4,17.3 18,22.5 53,66.3 60.6,75.8 68.2,66.3 71.1,62.7 " id="polygon102" style="fill:url(#SVGID_1_)" />
    <g id="g118">
      <polygon style="fill:url(#SVGID_00000040559873967293563990000010313427330174422680_)" points="76.4,17.5 91.9,36.7 103.2,22.5 107.2,17.5 " id="polygon109" />
      <polygon style="fill:url(#SVGID_00000068655785444952865200000007087109414417739179_)" points="81.6,49.5 89.2,40 89.3,39.9 71.2,17.5 67.9,13.4 73.1,13.4 110.5,13.4 110.6,13.3 113.8,9.2 121.2,0 105.9,0 57.2,0 42,0 49.4,9.2 52.6,13.3 60,22.5 74,40 " id="polygon116" />
    </g>
  </g>
</svg>